<svg width="274" height="65" viewBox="0 0 274 65" fill="none" xmlns="http://www.w3.org/2000/svg">
<path d="M32.5 65C50.4493 65 65 50.4493 65 32.5C65 14.5507 50.4493 0 32.5 0C14.5507 0 0 14.5507 0 32.5C0 50.4493 14.5507 65 32.5 65Z" fill="#ED2C24"/>
<path d="M0.542008 10.332C0.236365 10.332 0.0326034 10.1283 0.0326034 9.82263C0.0326034 9.61887 -0.171161 5.84928 0.440125 4.01543C0.542005 3.70978 1.05141 1.77405 2.88527 0.653358C2.98715 0.551477 3.08903 0.551476 3.19091 0.449595C4.92288 -0.365452 7.06238 -0.0598079 8.48872 1.26464C9.40564 2.07969 10.4245 3.50602 11.0357 4.52483C12.1564 6.46057 14.194 9.00759 19.39 9.00759C19.4919 9.00759 21.6313 9.21135 24.0765 7.8869C24.2803 7.78502 24.5859 7.8869 24.6878 8.09066C24.7897 8.29442 24.6878 8.60007 24.484 8.70195C21.8351 10.1283 19.39 9.92452 19.2881 9.92452C15.0091 9.92452 12.0545 8.29442 10.1188 4.93235C9.6094 4.01543 8.5906 2.69097 7.77555 1.97781C6.65486 0.959 4.92289 0.653358 3.59843 1.26464C3.49655 1.26464 3.39467 1.36652 3.39467 1.36652C1.86646 2.28345 1.35705 4.11731 1.35705 4.11731C0.745769 5.7474 0.949529 9.51699 0.949529 9.51699C1.05141 10.1283 0.847651 10.332 0.542008 10.332C0.542008 10.332 0.643889 10.332 0.542008 10.332Z" transform="translate(35.9316 27.3638)" fill="white"/>
<path d="M10.2152 -1.55458e-06C9.6039 -1.55458e-06 4.40798 0.101881 3.28729 0.407524C2.57412 0.611285 1.14779 0.305643 0.638383 0.101882C0.434622 7.74253e-07 0.128981 0.203762 0.0270997 0.407524C-0.0747812 0.611285 0.12898 0.916926 0.332742 1.01881C0.434622 1.01881 1.55531 1.42633 2.676 1.42633C2.98164 1.42633 3.1854 1.42633 3.49105 1.32445C4.30609 1.12069 8.58509 1.01881 10.2152 0.916928C10.5208 0.916928 10.7246 0.713166 10.6227 0.407524C10.6227 0.203762 10.4189 -1.55458e-06 10.2152 -1.55458e-06Z" transform="translate(41.3374 47.8843)" fill="#201C1B"/>
<path d="M7.88303 2.63392C5.23413 -0.728144 0.54761 0.0869029 0.343848 0.0869029C0.0382051 0.188784 -0.0636759 0.392546 0.0382049 0.596307C0.140086 0.800069 0.343848 1.00383 0.547609 0.901949C0.64949 0.901949 4.82661 0.0869005 7.16987 3.04145C7.37363 3.34709 7.57739 3.55085 7.88303 3.75461C7.98491 3.85649 8.08679 3.8565 8.18867 3.8565C8.29056 3.8565 8.49432 3.75461 8.49432 3.75461C8.69808 3.55085 8.5962 3.24521 8.49432 3.14333C8.29056 3.04145 8.08679 2.83769 7.88303 2.63392Z" transform="translate(14.5312 47.8992)" fill="white"/>
<path d="M1.55458e-06 0.815045C1.55458e-06 1.12069 0.203763 1.32445 0.509406 1.32445C0.815049 1.32445 1.01881 1.12069 1.01881 0.815045V-7.77289e-07L1.55458e-06 0.815045Z" transform="translate(33.4175 37.8999)" fill="white"/>
<path d="M0.203763 0.713166C0.305644 0.916928 0.407523 1.01881 0.611284 1.01881C0.713165 1.01881 0.713168 1.01881 0.713168 1.01881C0.916929 0.916927 1.12069 0.713167 1.01881 0.407524L0.916926 -7.77289e-07C0.407522 0.10188 7.77289e-07 0.203762 7.77289e-07 0.203762L0.203763 0.713166Z" transform="translate(37.2886 36.3716)" fill="white"/>
<path d="M16.6066 1.01881L15.6897 0.509404C15.0784 0.305643 14.3652 0.101881 13.4483 0H12.4295C11.6144 0 10.7994 0.203763 9.98433 0.407525L8.65988 0.713167C8.55799 0.713167 8.35423 0.815046 8.25235 0.815046L6.9279 1.22257C6.01097 1.52821 5.09404 1.73197 4.48276 1.83386C3.66771 1.93574 3.26019 2.03762 2.95455 2.03762C1.83386 2.03762 1.32445 2.1395 0.509404 2.1395C0.203762 2.1395 0 2.34326 0 2.6489C0 2.95454 0.203762 3.15831 0.509404 3.15831C3.97335 3.15831 6.31661 2.44514 8.45611 1.73198C9.98433 1.22257 11.3088 0.916929 12.7351 0.916929C15.5878 0.916929 17.0141 2.34326 17.116 2.34326L18.0329 3.26019C18.1348 3.36207 18.2367 3.36207 18.3386 3.36207C18.4404 3.36207 18.5423 3.26019 18.6442 3.26019C18.848 3.05643 18.848 2.75078 18.6442 2.6489L18.4404 2.44514V2.34326L17.5235 1.52821C17.2179 1.52821 17.0141 1.32445 16.6066 1.01881Z" transform="translate(14.6714 36.5752)" fill="white"/>
<path d="M9.59256 6.16379L9.3888 6.06191C9.08316 5.75627 5.82297 2.59796 3.37783 0.15282C3.17407 -0.050942 2.86843 -0.050942 2.76654 0.15282C2.56278 0.356582 2.56278 0.662227 2.76654 0.764107C5.21169 3.20925 8.47188 6.36756 8.77752 6.6732L8.8794 6.77508C9.3888 7.28448 10.6114 8.40517 10.6114 9.3221C10.6114 9.52586 10.5095 9.72962 10.3057 9.93339C10.0001 10.1371 9.79632 10.239 9.49068 10.239C8.8794 10.239 8.26811 9.72962 8.16623 9.52586C7.86059 9.22022 7.65683 9.01646 7.45306 8.81269C7.35118 8.71081 7.2493 8.71082 7.2493 8.60894L5.21169 6.6732L4.6004 7.28448L6.63802 9.22022C6.7399 9.3221 6.7399 9.3221 6.94366 9.42398C7.35118 9.83151 8.36999 10.6466 8.36999 11.3597C8.36999 11.5635 8.26811 11.6654 8.16623 11.7672C7.96247 11.971 7.75871 12.0729 7.45306 12.0729C6.94366 12.0729 6.53614 11.5635 6.33238 11.4616C6.23049 11.2578 6.02673 11.156 5.92485 10.9522L3.58159 8.60894L2.97031 9.22022L5.31357 11.5635C5.72109 11.971 5.92485 12.2766 6.02673 12.5823C6.12861 12.8879 6.02673 13.0917 5.72109 13.3973C5.21169 13.8049 4.6004 13.4992 4.39664 13.3973C4.29476 13.1936 4.19288 13.0917 3.98912 12.8879C3.47971 12.3785 2.05338 10.7484 1.9515 10.7484C1.74774 10.5447 1.44209 10.5447 1.34021 10.7484C1.13645 10.9522 1.13645 11.2578 1.34021 11.3597C1.44209 11.4616 2.76654 12.9898 3.37783 13.4992C3.58159 13.703 3.78535 14.0086 3.78535 14.3143C3.88723 14.6199 3.78535 14.8237 3.47971 15.0274C3.47971 15.3331 3.27595 15.3331 3.17407 15.3331C2.86843 15.3331 2.15526 15.1293 0.728927 13.703C0.525165 13.4992 0.219522 13.4992 0.117642 13.703C0.0157606 13.9067 -0.0861202 14.2124 0.117642 14.3143C1.34021 15.5368 2.35902 16.25 3.17407 16.25C3.58159 16.25 3.88724 16.1481 4.19288 15.8425C4.49852 15.5368 4.70228 15.0274 4.70228 14.6199C4.80416 14.6199 5.00793 14.7218 5.21169 14.7218C5.61921 14.7218 6.02673 14.6199 6.43425 14.2124C6.7399 13.9067 6.94366 13.4992 7.04554 12.9898C7.14742 13.0917 7.35118 13.0917 7.55495 13.0917H7.65683C8.16623 13.0917 8.57376 12.8879 8.8794 12.5823C9.18504 12.2766 9.3888 11.8691 9.3888 11.4616C9.3888 11.3597 9.3888 11.2578 9.28692 11.156C9.3888 11.156 9.49068 11.156 9.69444 11.156C10.2038 11.156 10.7133 10.9522 11.1208 10.5447C11.4264 10.239 11.6302 9.8315 11.6302 9.3221C11.5283 8.09953 10.102 6.77508 9.59256 6.16379Z" transform="translate(32.2808 41.6184)" fill="white"/>
<path d="M10.3191 4.89028C10.2173 4.89028 10.0135 4.89028 9.91162 4.99216C10.1154 4.68652 10.2173 4.279 10.2173 3.97336C10.2173 3.46395 10.0135 3.15831 9.70786 2.75078C9.40221 2.44514 9.09657 2.34326 8.68905 2.34326C8.48529 2.34326 8.17964 2.44514 7.97588 2.44514C7.97588 1.93574 7.67024 1.52821 7.46648 1.32445C6.75331 0.611284 5.93826 0.815046 5.12322 1.32445V1.22257C5.12322 0.815047 5.02133 0.509403 4.71569 0.305641C4.51193 0.101879 4.20629 -7.77289e-07 3.90065 -7.77289e-07C3.0856 -7.77289e-07 2.37243 0.713165 1.86303 1.32445L1.76115 1.42633C1.4555 1.73198 0.84422 2.34326 0.436696 3.05643C-0.27647 4.17712 0.0291721 4.89028 0.334815 5.19593C0.640457 5.50157 0.844219 5.60345 1.25174 5.60345C1.35362 5.60345 1.55738 5.60345 1.76115 5.50157C1.55738 6.11285 1.65927 6.62226 2.06679 7.02978C2.37243 7.33542 2.77996 7.53919 3.28936 7.53919C3.49312 7.53919 3.595 7.53918 3.79876 7.4373C3.69688 7.94671 3.79876 8.35423 4.20629 8.76176C4.51193 9.0674 4.91945 9.27116 5.2251 9.27116C5.7345 9.27116 6.14202 9.0674 6.54955 8.76176C6.44767 9.27116 6.54955 9.67868 6.85519 9.98432C7.05895 10.29 7.3646 10.3918 7.67024 10.3918C8.99469 10.3918 10.8285 8.35423 11.3379 7.02978C11.7455 6.11285 11.4398 5.60345 11.2361 5.39968C11.0323 5.09404 10.7267 4.89028 10.3191 4.89028ZM1.25174 4.58464C1.14986 4.58464 1.14986 4.58464 0.9461 4.48276C0.742339 4.279 0.946099 3.76959 1.14986 3.46395C1.4555 2.85267 1.96491 2.34326 2.27055 2.03762L2.37243 1.93574C2.77996 1.52821 3.39124 0.916929 3.79876 0.916929C3.90064 0.916929 3.90065 0.916927 4.00253 1.01881C4.10441 1.12069 4.10441 1.22257 4.10441 1.32445C4.10441 1.83385 3.39124 2.75078 2.77996 3.46395L2.57619 3.66771C2.37243 3.87148 1.76115 4.58464 1.25174 4.58464ZM2.67807 6.31661C2.16867 5.80721 3.18748 4.279 4.30817 3.15831C5.53074 1.93574 6.2439 1.63009 6.75331 2.03762C6.95707 2.1395 7.26271 2.54702 6.65143 3.36207C6.34579 3.56583 6.14202 3.87147 5.93826 4.07523C5.42886 4.58464 4.71569 5.39969 4.20629 6.11285C3.90064 6.41849 3.18748 6.82602 2.67807 6.31661ZM7.16083 6.9279C6.65143 7.4373 5.83638 8.35423 5.12322 8.35423C5.02134 8.35423 4.81757 8.25235 4.71569 8.15047C4.10441 7.53918 5.2251 6.01097 6.44767 4.7884C6.65143 4.58464 6.95707 4.38088 7.16083 4.07523C7.67024 3.66771 8.17964 3.36207 8.48528 3.36207C8.58717 3.36207 8.68905 3.46395 8.79093 3.46395C8.99469 3.66771 9.09657 3.76959 9.09657 4.07523C9.09657 4.99216 7.874 6.21473 7.36459 6.62226L7.26271 6.72414C7.36459 6.72414 7.26271 6.82602 7.16083 6.9279ZM10.5229 6.62226C10.0135 7.84483 8.3834 9.37304 7.67024 9.37304C7.56836 9.37304 7.56836 9.37304 7.46648 9.27116C7.16083 8.86364 7.67024 7.74295 8.89281 6.62226C9.40221 6.11285 9.91162 5.80721 10.3191 5.80721C10.421 5.80721 10.5229 5.80721 10.6248 5.90909C10.7267 6.01097 10.7267 6.21473 10.5229 6.62226Z" transform="translate(21.978 48.0879)" fill="#201C1B"/>
<path d="M0.542007 13.7912C0.236364 13.7912 0.0326027 13.5874 0.0326027 13.2818C0.0326027 13.078 -0.171161 7.8821 0.440124 5.53884C0.440124 5.43696 1.25517 2.38053 3.8022 0.954201C6.14546 -0.37025 8.69248 0.0372722 8.99812 0.139153C9.40564 0.139153 12.6658 0.546678 14.8053 4.52003C16.0279 7.3727 18.7787 8.59527 18.7787 8.59527C18.7787 8.59527 21.937 10.0216 26.216 7.98398C26.4198 7.8821 26.7254 7.98398 26.8273 8.18774C26.9292 8.39151 26.8273 8.69715 26.6235 8.79903C22.0389 10.9385 18.5749 9.5122 18.3712 9.41032C18.2693 9.41032 15.3147 8.08586 13.8884 4.92756C11.8508 1.25984 8.89624 1.05608 8.79436 1.05608H8.69248C8.69248 1.05608 6.24734 0.546677 4.10784 1.76925C1.96834 2.99182 1.25517 5.7426 1.25517 5.7426C0.643889 8.08586 0.847649 13.1799 0.847649 13.2818C1.05141 13.5874 0.84765 13.7912 0.542007 13.7912Z" transform="translate(33.6899 25.0254)" fill="white"/>
<path d="M22.6342 2.6489C20.9022 2.6489 18.0496 2.44514 17.3364 1.83386C16.9289 1.52821 16.4195 1.12069 15.8082 0.916926C14.7894 0.407522 13.5668 7.77289e-07 12.1405 7.77289e-07C10.2047 7.77289e-07 8.47275 0.305644 7.1483 0.713168C7.04641 0.713168 6.94453 0.815047 6.84265 0.815047C6.43513 1.01881 6.0276 1.22257 5.72196 1.52821C5.62008 1.52821 5.62008 1.63009 5.5182 1.63009C5.41632 1.73197 5.21256 1.83386 5.0088 2.03762C3.27682 3.26019 0.0166336 5.60345 0.0166336 8.04859C0.0166336 8.35423 -0.187129 10.4937 0.83168 11.6144C1.2392 12.0219 1.64673 12.2257 2.25801 12.2257C2.76742 12.2257 3.17494 12.0219 3.48058 11.7163C4.19375 11.0031 4.09187 9.88245 3.98999 8.86364C3.98999 8.45611 3.88811 7.94671 3.98999 7.84483C4.49939 7.13166 5.62008 6.21473 6.43513 6.21473C6.74077 6.21473 6.94453 6.01097 6.94453 5.70533C6.94453 5.39969 6.74077 5.19592 6.43513 5.19592C5.11068 5.19592 3.68435 6.62226 3.27682 7.23354C2.97118 7.53918 3.07306 8.04859 3.07306 8.86364C3.07306 9.5768 3.17494 10.6975 2.76742 11.0031C2.66554 11.105 2.56366 11.2069 2.15613 11.2069C1.85049 11.2069 1.54485 11.105 1.34108 10.9013C0.729799 10.1881 0.62792 8.55799 0.729801 8.04859C0.729801 6.11285 3.88811 3.87147 5.41632 2.75079C5.72196 2.54702 6.02761 2.34326 6.12949 2.24138C7.1483 1.42633 9.2878 0.916926 11.9367 0.916926C13.9743 0.916926 15.6044 1.83386 16.6232 2.54702C17.9477 3.46395 22.0229 3.56583 22.5323 3.56583C22.838 3.56583 23.0417 3.36207 23.0417 3.05643C23.0417 2.85267 22.838 2.6489 22.6342 2.6489Z" transform="translate(28.9175 36.2698)" fill="#201C1B"/>
<path d="M8.19044 7.06091C5.94906 7.06091 5.13401 6.24586 4.62461 5.73646C4.52273 5.63458 4.52273 5.63458 4.42085 5.5327C4.31896 5.43082 4.21708 5.32894 4.1152 5.22706C3.91144 5.02329 3.30016 4.41201 3.09639 4.31013C2.38323 3.9026 1.67006 3.59696 0.651254 4.20825C0.447492 4.31013 0.141849 4.20825 0.0399685 4.00448C-0.0619124 3.80072 0.0399683 3.49508 0.24373 3.3932C1.67006 2.68003 2.68887 3.08756 3.6058 3.49508C3.80956 3.59696 4.21708 3.9026 4.82837 4.51389C4.93025 4.61577 5.03213 4.71765 5.13401 4.81953C5.23589 4.92141 5.23589 4.92141 5.33777 5.02329C5.84718 5.5327 6.45846 6.14398 8.69984 6.0421C12.0619 5.83834 15.1183 2.57815 15.1183 2.47627C17.3597 -0.0707513 19.703 -0.070751 20.1105 0.0311299C23.5745 -0.172632 25.3064 3.18944 25.714 5.02329C25.8158 5.32894 25.6121 5.5327 25.4083 5.63458C25.1027 5.73646 24.8989 5.5327 24.797 5.32894C24.797 5.12517 23.5745 0.846177 20.1105 1.04994C20.0086 1.04994 17.971 0.846177 15.9334 3.18944C15.8315 3.3932 12.5713 6.85715 8.80172 7.06091C8.49608 7.06091 8.29232 7.06091 8.19044 7.06091Z" transform="translate(4.34082 25.7449)" fill="white"/>
<path d="M22.4138 24.1458C22.1082 24.1458 21.9044 23.942 21.9044 23.6364V11.5125C21.9044 11.3088 21.4969 5.90909 16.5047 4.38088C16.5047 4.38088 13.2445 3.05643 9.5768 4.68652C4.99216 6.62226 2.44514 4.89028 2.1395 4.58464C1.83386 4.38088 0.305643 3.26019 3.88645e-07 0.509405C3.88645e-07 0.203762 0.203762 1.94322e-07 0.407524 1.94322e-07C0.713166 1.94322e-07 0.916928 0.203762 0.916928 0.407523C1.12069 2.95455 2.54702 3.76959 2.54702 3.76959H2.6489C2.75078 3.87147 4.99216 5.60345 9.16928 3.76959C13.1426 2.03762 16.5047 3.36207 16.9122 3.46395C22.5157 5.19593 22.9232 11.5125 22.9232 11.5125V23.6364C22.9232 23.8401 22.7194 24.1458 22.4138 24.1458Z" transform="translate(9.67871 14.9763)" fill="white"/>
<path d="M21.8425 19.8049C21.5368 19.8049 21.3331 19.6011 21.3331 19.2955V9.00549C21.3331 8.69984 20.8237 5.54154 18.5823 4.62461H18.4804C18.4804 4.62461 16.6466 3.6058 14.8127 3.70768C12.9788 3.80956 11.145 4.72649 11.0431 4.72649C10.9412 4.72649 9.31113 5.64342 7.47727 5.64342C5.23589 5.7453 2.07759 5.43965 0.0399682 0.651254C-0.0619127 0.447492 0.0399684 0.141849 0.24373 0.039968C0.447492 -0.0619129 0.753134 0.0399688 0.855015 0.243731C2.58699 4.31897 5.23589 4.72649 7.37539 4.62461C9.00549 4.62461 10.5337 3.80956 10.5337 3.80956C10.6356 3.80956 12.5713 2.79075 14.6089 2.58699C16.6466 2.48511 18.4804 3.40204 18.786 3.6058C21.6387 4.72649 22.1481 8.59796 22.1481 8.80172V8.90361V19.2955C22.3519 19.6011 22.1481 19.8049 21.8425 19.8049Z" transform="translate(7.70264 17.5854)" fill="white"/>
<path d="M0.509405 27.3133C0.203762 27.3133 3.88645e-07 27.1095 3.88645e-07 26.8039C3.88645e-07 26.702 0.101882 24.155 1.12069 22.2192L1.32445 22.0155C1.93574 21.0985 2.6489 19.9778 4.99216 19.1628C6.82602 18.5515 7.84483 16.9214 7.74295 14.8838C7.64107 12.7443 6.01097 11.318 5.39969 10.9104C5.29781 10.8086 5.19592 10.8086 5.09404 10.7067C4.89028 10.6048 4.68652 10.401 4.48276 10.1973C0.509404 5.91828 4.279 0.314829 4.279 0.212948C4.38088 0.00918639 4.68652 -0.0926944 4.99216 0.111067C5.19593 0.212948 5.2978 0.518591 5.09404 0.824234C4.99216 1.028 1.73198 5.91828 5.19593 9.58599C5.29781 9.68787 5.50157 9.78975 5.60345 9.89163C5.70533 9.99351 5.80721 9.99351 5.90909 10.0954C6.52038 10.6048 8.45611 12.133 8.55799 14.7819C8.65987 17.3289 7.4373 19.2647 5.09404 20.0797C3.05643 20.691 2.54702 21.6079 1.93574 22.5249V22.7286C1.01881 24.4606 0.916928 26.8039 0.916928 26.8039C0.916928 27.1095 0.713167 27.3133 0.509405 27.3133Z" transform="translate(31.583 4.47339)" fill="white"/>
<path d="M1.69207 21.5578C1.4883 21.5578 1.28454 21.4559 1.18266 21.2522C1.08078 21.0484 1.18266 20.7428 1.4883 20.6409C1.59018 20.6409 4.44285 19.5202 5.15601 16.3619C5.15601 16.3619 5.66542 14.0186 4.64661 11.8791C3.6278 9.53586 1.69206 8.31328 1.59018 8.31328C1.4883 8.2114 0.265731 7.39636 0.061969 5.86814C-0.345555 3.21924 1.38642 0.366575 1.4883 0.264695C1.69206 -0.0409482 1.99771 -0.0409485 2.20147 0.0609324C2.40523 0.162813 2.50711 0.468456 2.30335 0.774099C2.30335 0.774099 0.673254 3.423 1.08078 5.66438C1.28454 6.78507 2.20147 7.39636 2.20147 7.39636C2.30335 7.39636 4.44285 8.82269 5.56354 11.3697C6.58235 13.9167 6.07294 16.3619 6.07294 16.4638C5.35978 20.2333 1.89583 21.4559 1.79394 21.4559C1.79394 21.5578 1.79395 21.5578 1.69207 21.5578Z" transform="translate(36.8188 5.0332)" fill="white"/>
<path d="M9.82053 3.89857C9.61677 3.89857 9.41301 3.89857 9.31113 3.89857C7.57915 3.79669 6.56035 3.08352 5.84718 2.57412C4.93025 1.86095 4.31896 1.65719 3.91144 1.65719C1.87382 1.65719 0.855015 3.38917 0.855015 3.49105C0.753134 3.69481 0.447493 3.79669 0.243731 3.69481C0.0399691 3.59293 -0.0619125 3.28729 0.0399684 3.08352C0.141849 2.98164 1.36442 0.740266 3.91144 0.740266C4.52273 0.740266 5.43966 1.14779 6.35658 1.86096C7.06975 2.37036 7.88479 2.87976 9.31113 2.98164C10.7375 3.08352 13.1826 2.87976 14.2014 0.332742C14.3033 0.128981 14.6089 -0.0747824 14.8127 0.0270985C15.0165 0.128979 15.2202 0.434622 15.1183 0.638384C13.9976 3.38917 11.3487 3.89857 9.82053 3.89857Z" transform="translate(42.1387 18.1077)" fill="white"/>
<path d="M9.82053 3.39603C8.69984 3.39603 7.57915 2.58098 7.47727 2.4791C7.47727 2.4791 6.15282 1.35841 4.82837 1.05277C3.80956 0.849007 2.99452 1.05277 2.99452 1.05277C1.36442 1.46029 0.855015 2.27534 0.855015 2.27534C0.753134 2.4791 0.447493 2.58098 0.243731 2.4791C0.0399691 2.37722 -0.0619125 2.07158 0.0399684 1.86782C0.141849 1.76594 0.753135 0.645246 2.79075 0.135841C2.79075 0.135841 3.70768 -0.169801 5.03213 0.135841C6.56035 0.441484 7.98668 1.66405 8.08856 1.76594C8.29232 1.9697 9.10737 2.4791 9.82053 2.4791C10.5337 2.4791 10.8393 2.37722 11.4506 1.9697C11.96 1.66405 12.4694 0.645246 12.6732 0.339604C12.7751 0.135842 13.0807 0.0339603 13.2845 0.135841C13.4882 0.237722 13.5901 0.543365 13.4882 0.747127C13.3864 0.950889 12.7751 2.27534 11.96 2.78474C11.2469 3.19227 10.7375 3.39603 9.82053 3.39603Z" transform="translate(42.1387 16.0632)" fill="white"/>
<path d="M0.853253 7.65025C0.649491 7.65025 0.44573 7.54837 0.343849 7.34461C0.343849 7.24273 -0.267437 5.40887 0.140086 3.16749C0.445729 1.12988 1.6683 0.111067 1.77018 0.111067C1.97394 -0.0926947 2.27958 0.00918659 2.48335 0.212948C2.68711 0.41671 2.58523 0.722353 2.38147 0.926115C2.38147 0.926115 1.36266 1.84304 1.1589 3.47314C0.853252 5.51075 1.36266 7.24273 1.36266 7.24273C1.46454 7.54837 1.26078 7.75213 1.05702 7.85401C0.955135 7.65025 0.853253 7.65025 0.853253 7.65025Z" transform="translate(57.3208 26.6836)" fill="white"/>
<path d="M0.858854 10.8663C0.655092 10.8663 0.451331 10.7644 0.34945 10.5607C0.34945 10.4588 -0.363715 8.21739 0.247571 4.9572C0.858856 1.49325 2.89647 0.168803 2.99836 0.0669217C3.20212 -0.0349592 3.50776 -0.0349608 3.71152 0.168801C3.8134 0.372563 3.8134 0.678206 3.60964 0.881968C3.60964 0.881968 1.77578 2.10454 1.26638 5.05908C0.756975 8.01363 1.36826 10.255 1.36826 10.255C1.47014 10.5607 1.26638 10.7644 1.06262 10.8663C0.960736 10.8663 0.960735 10.8663 0.858854 10.8663Z" transform="translate(55.1758 23.9771)" fill="white"/>
<path d="M1.12988 15.6988C1.028 15.6988 0.926115 15.6988 0.824234 15.597C0.620472 15.3932 0.620472 15.0876 0.824234 14.8838C0.824234 14.8838 2.0468 13.5593 2.14868 11.2161C2.14868 11.1142 3.06561 4.59383 0.111067 0.824234C-0.0926947 0.620472 0.00918659 0.314829 0.212948 0.111067C0.41671 -0.0926944 0.722354 0.00918639 0.926115 0.212948C4.08442 4.1863 3.26937 10.8086 3.16749 11.318C3.06561 13.9669 1.63928 15.4951 1.63928 15.4951C1.33364 15.597 1.23176 15.6988 1.12988 15.6988Z" transform="translate(27.1929 4.47339)" fill="white"/>
<path d="M0.824233 17.6346C0.722352 17.6346 0.620472 17.6346 0.518591 17.5327C0.314829 17.3289 0.314829 17.0233 0.518591 16.8195C0.518591 16.8195 1.63928 15.597 2.0468 13.5593C3.16749 7.65025 1.5374 2.65809 0.111068 0.824234C-0.0926939 0.620472 0.00918736 0.314829 0.212949 0.111067C0.416711 -0.0926945 0.722352 0.00918679 0.926114 0.212949C2.45433 2.25057 4.1863 7.54837 2.96373 13.7631C2.55621 16.1064 1.23176 17.4308 1.12988 17.5327C1.028 17.6346 0.926114 17.6346 0.824233 17.6346Z" transform="translate(29.4346 4.06592)" fill="white"/>
<path d="M11.4489 6.86422C11.0413 6.86422 2.27958 6.76234 0.0382049 0.649491C-0.0636759 0.445729 0.0382061 0.140086 0.343849 0.0382051C0.54761 -0.0636757 0.853252 0.0382053 0.955132 0.343848C2.99275 5.84542 11.4489 5.84542 11.5507 5.84542C11.8564 5.84542 12.0601 6.04918 12.0601 6.35482C11.9583 6.66046 11.7545 6.86422 11.4489 6.86422Z" transform="translate(18.0967 7.70483)" fill="white"/>
<path d="M0.509404 1.56818C0.509404 1.56818 0.407524 1.56818 0.509404 1.56818C0.203762 1.56818 0 1.36442 0 1.05878C0 0.753134 0.203762 0.549373 0.509404 0.549373C0.509404 0.549373 2.54702 0.549373 3.66771 0.0399682C3.87147 -0.0619127 4.17712 0.039968 4.279 0.24373C4.38088 0.447491 4.279 0.753135 4.07524 0.855015C2.75078 1.56818 0.611285 1.56818 0.509404 1.56818Z" transform="translate(31.9907 12.7971)" fill="white"/>
<path d="M0.713166 2.07759C0.611285 2.07759 0.509405 2.07759 0.509405 2.07759C0.203763 2.07759 7.77289e-07 1.87382 7.77289e-07 1.56818C7.77289e-07 1.26254 0.203763 1.05878 0.509405 1.05878C0.509405 1.05878 3.66771 1.16066 5.70533 0.0399687C5.90909 -0.0619121 6.21474 0.0399686 6.31662 0.24373C6.4185 0.447492 6.31662 0.753134 6.11285 0.855015C4.279 1.9757 1.52821 2.07759 0.713166 2.07759Z" transform="translate(31.6851 14.7327)" fill="white"/>
<path d="M0.447492 6.52038C0.24373 6.52038 0.141848 6.4185 0.0399668 6.31661C-0.0619141 6.11285 0.0399676 5.80721 0.243729 5.70533C0.243729 5.70533 3.70768 3.66771 4.31896 0.407524C4.31896 0.101881 4.62461 -9.71612e-08 4.93025 -9.71612e-08C5.23589 -9.71612e-08 5.33777 0.305642 5.33777 0.611285C4.72649 4.38088 0.956896 6.52038 0.753134 6.52038C0.549372 6.4185 0.447492 6.52038 0.447492 6.52038Z" transform="translate(37.6562 6.11279)" fill="white"/>
<path d="M0.445728 7.05628C0.241966 7.05628 0.0382069 6.9544 0.0382069 6.75064C-0.063674 6.54688 0.0382061 6.24124 0.343849 6.13936C0.343849 6.13936 3.70592 4.61114 4.72473 0.434026C4.72473 0.128383 5.03037 -0.0753787 5.23413 0.0265021C5.53977 0.128383 5.64165 0.332145 5.64165 0.637787C4.52097 5.32431 0.853252 6.9544 0.649491 6.9544C0.54761 6.9544 0.547609 7.05628 0.445728 7.05628Z" transform="translate(39.4917 7.10498)" fill="white"/>
<path d="M0.542673 8.05778C0.338911 8.05778 0.13515 7.85402 0.0332688 7.65025C0.0332688 7.44649 -0.374256 3.26937 1.66336 0.212948C1.76524 0.00918619 2.07089 -0.0926941 2.37653 0.111068C2.58029 0.212949 2.68217 0.518591 2.47841 0.824234C0.644552 3.47314 1.05208 7.44649 1.05208 7.44649C1.05208 7.75213 0.848316 7.9559 0.542673 8.05778Z" transform="translate(45.1001 8.75269)" fill="white"/>
<path d="M0.551136 7.24273C0.347375 7.24273 0.143613 7.03897 0.041732 6.8352C0.041732 6.63144 -0.365792 2.75997 1.36618 0.212949C1.56994 0.00918679 1.77371 -0.0926945 2.07935 0.111067C2.28311 0.212948 2.38499 0.518591 2.18123 0.824233C0.653016 3.06561 0.958657 6.73332 0.958657 6.8352C1.06054 6.93709 0.856779 7.24273 0.551136 7.24273Z" transform="translate(47.6387 10.179)" fill="white"/>
<path d="M9.98433 10.5956C8.76176 10.5956 4.89028 10.3918 2.85267 8.35423C0.407524 5.90909 1.55458e-06 0.713166 1.55458e-06 0.509405C1.55458e-06 0.203762 0.203761 3.88645e-07 0.407523 3.88645e-07C0.713165 3.88645e-07 0.916927 0.203762 0.916927 0.407524C0.916927 0.407524 1.32445 5.39969 3.56583 7.64107C5.70533 9.78056 10.3918 9.67868 10.3918 9.5768C10.6975 9.5768 10.9013 9.78056 10.9013 10.0862C10.9013 10.3918 10.6975 10.5956 10.3918 10.5956C10.29 10.5956 10.1881 10.5956 9.98433 10.5956Z" transform="translate(45.6426 18.8479)" fill="white"/>
<path d="M6.9279 6.41849C5.70533 6.41849 3.76959 6.21473 2.34326 5.29781C0.305643 3.87147 7.77289e-07 0.611285 7.77289e-07 0.509404C7.77289e-07 0.203762 0.20376 0 0.407522 0C0.713165 0 0.916926 0.203761 0.916926 0.407523C0.916926 0.407523 1.12069 3.36207 2.85266 4.48276C4.58464 5.60345 7.33542 5.50157 7.84483 5.39969C8.15047 5.39969 8.35423 5.60345 8.35423 5.80721C8.35423 6.11285 8.15047 6.31662 7.94671 6.31662C7.74295 6.4185 7.4373 6.41849 6.9279 6.41849Z" transform="translate(48.4956 20.7837)" fill="white"/>
<path d="M1.42145 8.45611C1.21769 8.45611 1.01393 8.35423 1.01393 8.15047C0.912047 7.94671 -0.514286 3.97335 0.19888 0.407524C0.300761 0.101882 0.504523 -7.77289e-07 0.810165 -7.77289e-07C1.11581 0.10188 1.21769 0.305642 1.21769 0.611285C0.606403 3.87147 2.03274 7.74295 2.03274 7.74295C2.13462 7.94671 2.03274 8.25235 1.72709 8.35423C1.52333 8.45611 1.42145 8.45611 1.42145 8.45611Z" transform="translate(15.3892 22.6174)" fill="white"/>
<path d="M1.07383 8.08679C0.870069 8.08679 0.666308 7.98491 0.564427 7.67927C0.564427 7.47551 -0.556264 3.50215 0.360664 0.343847C0.462545 0.0382045 0.666307 -0.0636756 0.97195 0.0382053C1.27759 0.140086 1.37947 0.343848 1.27759 0.649491C0.462545 3.50216 1.48135 7.37363 1.48135 7.47551C1.58324 7.78115 1.37947 7.98491 1.17571 8.08679C1.17571 8.08679 1.17571 8.08679 1.07383 8.08679Z" transform="translate(17.7739 21.7644)" fill="white"/>
<path d="M0.509404 6.68918C0.407523 6.68918 0.407523 6.68918 0.509404 6.68918C0.203761 6.68918 1.94322e-07 6.38354 1.94322e-07 6.17977C1.94322e-07 5.97601 0.611286 1.90078 3.46395 0.0669205C3.66771 -0.0349604 3.97335 -0.03496 4.17712 0.168802C4.279 0.372564 4.279 0.678206 4.07523 0.881968C1.63009 2.51206 1.12069 6.28165 1.12069 6.28165C0.916928 6.48542 0.713165 6.68918 0.509404 6.68918Z" transform="translate(15.9956 13.4834)" fill="white"/>
<path d="M0.44573 5.0431H0.343848C0.0382057 4.94122 -0.0636763 4.73746 0.0382046 4.43182C0.0382046 4.32994 0.64949 1.98668 2.58523 0.152822C2.78899 -0.0509401 3.09463 -0.0509401 3.29839 0.152822C3.50216 0.356583 3.50216 0.662226 3.29839 0.865988C1.56642 2.49608 1.05701 4.63558 1.05701 4.63558C0.853252 4.83934 0.649491 5.0431 0.44573 5.0431Z" transform="translate(18.5044 14.6201)" fill="white"/>
<path d="M2.59796 6.97884C2.49608 6.97884 2.49608 6.97884 2.3942 6.97884C2.19044 6.87696 2.08856 6.57132 2.19044 6.36755C2.19044 6.36755 3.31113 3.61677 0.152821 0.865987C-0.0509406 0.662225 -0.0509406 0.356584 0.152821 0.152822C0.356583 -0.0509397 0.662226 -0.0509397 0.865988 0.152822C4.02429 2.90361 3.61677 5.85815 3.10737 6.77508C2.90361 6.87696 2.80172 6.97884 2.59796 6.97884Z" transform="translate(5.55273 23.3816)" fill="white"/>
<path d="M3.98254 11.0123C3.88066 11.0123 3.88066 11.0123 3.77878 11.0123C3.57502 10.9104 3.37126 10.6048 3.47314 10.401C3.57502 10.1973 5.51075 4.89947 0.212948 0.926115C0.00918659 0.722353 -0.0926942 0.41671 0.111068 0.212948C0.314829 0.00918619 0.620472 -0.0926951 0.824233 0.111067C6.73332 4.59383 4.39006 10.7067 4.39006 10.7067C4.28818 10.8086 4.1863 11.0123 3.98254 11.0123Z" transform="translate(6.30713 20.9783)" fill="white"/>
<path d="M0.44749 2.37036C0.345609 2.37036 0.345613 2.37036 0.243732 2.26848C0.0399699 2.1666 -0.0619117 1.86095 0.0399691 1.65719C0.0399691 1.65719 0.549372 0.638383 2.17947 0.0270981C2.38323 -0.0747827 2.68887 0.12898 2.79075 0.332742C2.89263 0.536504 2.68887 0.842147 2.48511 0.944028C1.26254 1.35155 0.855015 2.06472 0.855015 2.06472C0.855015 2.26848 0.651252 2.37036 0.44749 2.37036Z" transform="translate(45.3984 25.1375)" fill="white"/>
<path d="M0.509404 2.06472C0.203762 2.06472 0 1.86095 0 1.55531C0 1.24967 0.203762 0.536503 2.03762 0.0270989C2.34326 -0.074782 2.54702 0.128979 2.6489 0.332741C2.75078 0.638383 2.54702 0.842146 2.34326 0.944026C1.22257 1.24967 1.01881 1.55531 0.916929 1.65719C0.916929 1.96284 0.713166 2.06472 0.509404 2.06472Z" transform="translate(47.2725 26.8694)" fill="white"/>
<path d="M0.458464 5.7453C0.356583 5.7453 0.254703 5.7453 0.152822 5.64342C-0.0509401 5.43966 -0.0509401 5.13401 0.152822 4.93025C0.152822 4.93025 1.98668 2.79075 1.06975 0.651253C0.967868 0.447492 1.06975 0.141849 1.27351 0.0399683C1.47727 -0.0619126 1.78291 0.0399686 1.8848 0.24373C3.10737 2.99451 0.967868 5.43965 0.865987 5.54154C0.662225 5.64342 0.560344 5.7453 0.458464 5.7453Z" transform="translate(21.2422 6.07275)" fill="white"/>
<path d="M0.458464 7.68103C0.356583 7.68103 0.254703 7.68103 0.152822 7.57915C-0.0509397 7.37539 -0.0509397 7.06975 0.152822 6.86599C0.152822 6.76411 2.49608 4.1152 0.967868 0.651254C0.865987 0.447492 0.967869 0.141849 1.17163 0.0399685C1.37539 -0.0619124 1.68103 0.0399683 1.78291 0.24373C3.61677 4.31897 0.764107 7.37539 0.662226 7.47727C0.662226 7.57915 0.560345 7.68103 0.458464 7.68103Z" transform="translate(23.3818 5.35962)" fill="white"/>
<path d="M23.092 9.04681C22.7864 9.04681 22.5826 8.84305 22.5826 8.53741V3.85089C22.5826 3.03584 22.277 2.22079 21.7675 1.60951C21.4619 1.20199 20.4431 0.794462 19.8318 0.998224H19.7299C19.7299 0.998224 18.5074 1.30387 16.4697 3.34149C13.719 5.99039 10.6625 7.11108 7.0967 6.90731C7.0967 6.90731 6.48542 6.80544 5.87413 6.70356C4.85532 6.39791 3.83651 5.78662 3.02147 4.8697C2.61394 4.36029 2.20642 4.05465 1.7989 3.85089C1.08573 3.64713 0.780087 3.74901 0.780087 3.85089C0.576325 3.95277 0.270683 3.95277 0.0669211 3.74901C-0.0349598 3.54525 -0.0349599 3.2396 0.168802 3.03584C0.270683 3.03584 0.881968 2.62832 2.00266 2.93396C2.51206 3.13772 3.12335 3.54525 3.63275 4.15653C4.24404 4.97158 5.16096 5.48098 6.07789 5.68475C6.68918 5.78663 7.19858 5.8885 7.19858 5.8885C10.4588 6.09227 13.3114 5.07346 15.7566 2.62832C17.998 0.48882 19.3224 0.0812964 19.5262 0.0812964C20.545 -0.224346 21.9713 0.386939 22.4807 0.998224C23.092 1.81327 23.4995 2.83208 23.4995 3.85089V8.53741C23.4995 8.84305 23.2958 9.04681 23.092 9.04681Z" transform="translate(4.21191 28.2417)" fill="white"/>
<path d="M11.8564 7.78115C9.92065 7.78115 6.66046 7.47551 4.11344 5.43789C0.955134 2.99275 0.0382051 0.751372 0.0382051 0.649491C-0.0636757 0.445729 0.0382053 0.140086 0.343848 0.0382053C0.54761 -0.0636755 0.853253 0.0382055 0.955134 0.343848C0.955134 0.343848 1.77018 2.38147 4.72473 4.72473C8.29056 7.47551 13.3846 6.76234 13.4865 6.76234C13.7921 6.76234 13.9959 6.86422 13.9959 7.16987C13.9959 7.47551 13.894 7.67927 13.5884 7.67927C13.4865 7.67927 12.8752 7.78115 11.8564 7.78115Z" transform="translate(15.855 9.0293)" fill="white"/>
<path d="M6.336 28.288H15.584V32H2.208V9.6H15.424V13.312H6.336V18.72H14.208V22.432H6.336V28.288ZM31.3755 30.592C31.3755 30.976 31.3862 31.2747 31.4075 31.488C31.4502 31.68 31.5248 31.8507 31.6315 32H28.6235C28.2395 32 27.9302 31.8613 27.6955 31.584C27.4608 31.3067 27.3435 30.976 27.3435 30.592V29.632C26.2342 31.36 24.6662 32.224 22.6395 32.224C21.2742 32.224 20.1435 31.8293 19.2475 31.04C18.3728 30.2293 17.9355 29.0453 17.9355 27.488C17.9355 25.8027 18.4688 24.5973 19.5355 23.872C20.6235 23.1467 22.2448 22.656 24.3995 22.4L27.3435 22.048V21.44C27.3435 20.608 27.1302 20 26.7035 19.616C26.2768 19.232 25.5622 19.04 24.5595 19.04C23.7062 19.04 22.8955 19.168 22.1275 19.424C21.3595 19.6587 20.6875 19.9467 20.1115 20.288L19.0875 17.472C20.0902 16.896 21.0715 16.4693 22.0315 16.192C23.0128 15.9147 24.0688 15.776 25.1995 15.776C27.2688 15.776 28.8155 16.256 29.8395 17.216C30.8635 18.1547 31.3755 19.6053 31.3755 21.568V30.592ZM24.1115 29.024C25.2848 29.024 26.1168 28.736 26.6075 28.16C27.0982 27.584 27.3435 26.9227 27.3435 26.176V24.928L24.7835 25.248C23.7808 25.376 23.0448 25.5787 22.5755 25.856C22.1062 26.1333 21.8715 26.6133 21.8715 27.296C21.8715 28.448 22.6182 29.024 24.1115 29.024ZM41.4672 22.272C43.6219 22.9333 45.2113 23.648 46.2353 24.416C47.2593 25.184 47.7712 26.2293 47.7712 27.552C47.7712 28.5333 47.4726 29.376 46.8752 30.08C46.2992 30.784 45.5206 31.328 44.5393 31.712C43.5579 32.0747 42.4913 32.256 41.3393 32.256C39.4833 32.256 37.9793 31.8187 36.8273 30.944C35.6752 30.048 35.0139 28.8853 34.8433 27.456L38.1712 26.944C38.4059 27.584 38.7793 28.1067 39.2913 28.512C39.8246 28.896 40.5179 29.088 41.3713 29.088C42.0326 29.088 42.5872 28.96 43.0352 28.704C43.4832 28.4267 43.7072 27.9893 43.7072 27.392C43.7072 27.008 43.5259 26.6667 43.1632 26.368C42.8219 26.048 42.0859 25.728 40.9552 25.408C37.2646 24.32 35.4193 22.6133 35.4193 20.288C35.4193 19.456 35.6432 18.6987 36.0912 18.016C36.5606 17.312 37.2326 16.7573 38.1073 16.352C38.9819 15.9467 40.0059 15.744 41.1792 15.744C42.9713 15.744 44.4113 16.1813 45.4993 17.056C46.5873 17.9307 47.1739 19.0613 47.2592 20.448L44.1552 20.96C43.8992 20.3627 43.5472 19.872 43.0992 19.488C42.6726 19.104 42.0539 18.912 41.2432 18.912C40.5819 18.912 40.0912 19.0507 39.7712 19.328C39.4726 19.6053 39.3232 19.968 39.3232 20.416C39.3232 20.7787 39.4512 21.1093 39.7073 21.408C39.9633 21.7067 40.5499 21.9947 41.4672 22.272ZM56.2692 26.688C56.2692 27.456 56.4399 28.0213 56.7812 28.384C57.1439 28.7467 57.7412 28.928 58.5732 28.928C58.7226 28.928 59.0106 28.9067 59.4373 28.864V31.68C58.5626 32.0427 57.6346 32.224 56.6533 32.224C54.9466 32.224 53.7839 31.7653 53.1652 30.848C52.5466 29.9307 52.2373 28.544 52.2373 26.688V19.264H49.5493V16H52.2373V12L56.2692 11.552V16H59.6292L59.6613 19.264H56.2692V26.688ZM82.472 20.288C83.816 20.6933 84.8613 21.3653 85.608 22.304C86.3547 23.2427 86.728 24.448 86.728 25.92C86.728 27.8187 86.12 29.312 84.904 30.4C83.688 31.4667 81.6613 32 78.824 32H71.208V9.6H78.696C81.192 9.6 83.0053 10.1013 84.136 11.104C85.288 12.0853 85.864 13.472 85.864 15.264C85.864 16.5227 85.5867 17.5573 85.032 18.368C84.4773 19.1787 83.624 19.776 82.472 20.16V20.288ZM75.4 13.312V18.752H78.696C79.784 18.752 80.5627 18.528 81.032 18.08C81.5013 17.632 81.736 16.928 81.736 15.968C81.736 14.9653 81.5013 14.272 81.032 13.888C80.584 13.504 79.8053 13.312 78.696 13.312H75.4ZM78.824 28.288C80.1893 28.288 81.1493 28.0533 81.704 27.584C82.28 27.0933 82.568 26.304 82.568 25.216C82.568 23.9787 82.2373 23.1253 81.576 22.656C80.9147 22.1867 79.9973 21.952 78.824 21.952H75.4V28.288H78.824ZM102.782 30.592C102.782 30.976 102.792 31.2747 102.814 31.488C102.856 31.68 102.931 31.8507 103.038 32H100.03C99.6457 32 99.3364 31.8613 99.1018 31.584C98.8671 31.3067 98.7498 30.976 98.7498 30.592V29.632C97.6404 31.36 96.0724 32.224 94.0458 32.224C92.6804 32.224 91.5498 31.8293 90.6537 31.04C89.7791 30.2293 89.3418 29.0453 89.3418 27.488C89.3418 25.8027 89.8751 24.5973 90.9418 23.872C92.0298 23.1467 93.6511 22.656 95.8057 22.4L98.7498 22.048V21.44C98.7498 20.608 98.5364 20 98.1097 19.616C97.6831 19.232 96.9684 19.04 95.9658 19.04C95.1124 19.04 94.3018 19.168 93.5338 19.424C92.7658 19.6587 92.0938 19.9467 91.5178 20.288L90.4938 17.472C91.4964 16.896 92.4777 16.4693 93.4377 16.192C94.4191 15.9147 95.4751 15.776 96.6058 15.776C98.6751 15.776 100.222 16.256 101.246 17.216C102.27 18.1547 102.782 19.6053 102.782 21.568V30.592ZM95.5177 29.024C96.6911 29.024 97.5231 28.736 98.0138 28.16C98.5044 27.584 98.7498 26.9227 98.7498 26.176V24.928L96.1897 25.248C95.1871 25.376 94.4511 25.5787 93.9818 25.856C93.5124 26.1333 93.2778 26.6133 93.2778 27.296C93.2778 28.448 94.0244 29.024 95.5177 29.024ZM120.985 16L114.681 31.968C114.147 33.3333 113.603 34.464 113.049 35.36C112.515 36.256 111.8 36.992 110.905 37.568C110.009 38.144 108.878 38.432 107.513 38.432L106.872 38.4V35.008C107.001 35.0293 107.171 35.04 107.385 35.04C108.152 35.04 108.856 34.7627 109.497 34.208C110.137 33.6533 110.627 32.9173 110.969 32L111.256 31.264L105.24 16H109.305L113.113 26.4L116.889 16H120.985ZM138.668 9.6C142.167 9.6 144.738 10.4747 146.38 12.224C148.044 13.9733 148.876 16.8213 148.876 20.768C148.876 24.7147 148.044 27.5733 146.38 29.344C144.738 31.1147 142.167 32 138.668 32H132.364V9.6H138.668ZM139.052 28.416C140.439 28.416 141.538 28.2027 142.348 27.776C143.159 27.328 143.756 26.56 144.14 25.472C144.546 24.3627 144.748 22.7947 144.748 20.768C144.748 18.7627 144.546 17.216 144.14 16.128C143.756 15.0187 143.159 14.2507 142.348 13.824C141.538 13.3973 140.439 13.184 139.052 13.184H136.492V28.416H139.052ZM159.782 18.56C161.574 19.2427 162.961 19.8293 163.942 20.32C164.945 20.7893 165.798 21.4613 166.502 22.336C167.206 23.1893 167.558 24.2773 167.558 25.6C167.558 26.88 167.206 28.032 166.502 29.056C165.798 30.0587 164.838 30.848 163.622 31.424C162.428 31.9787 161.084 32.256 159.59 32.256C157.798 32.256 156.145 31.8293 154.63 30.976C153.116 30.1227 152.017 28.9387 151.334 27.424L154.246 25.472C154.929 26.5387 155.74 27.3173 156.678 27.808C157.638 28.2987 158.609 28.544 159.59 28.544C160.572 28.544 161.446 28.3307 162.214 27.904C163.004 27.4773 163.398 26.752 163.398 25.728C163.398 24.896 163.046 24.224 162.342 23.712C161.66 23.1787 160.518 22.6453 158.918 22.112C156.657 21.344 154.972 20.448 153.862 19.424C152.753 18.3787 152.198 17.088 152.198 15.552C152.198 14.3787 152.518 13.3227 153.158 12.384C153.798 11.424 154.673 10.6773 155.782 10.144C156.913 9.61067 158.182 9.344 159.59 9.344C161.51 9.344 163.132 9.77067 164.454 10.624C165.777 11.4773 166.748 12.48 167.366 13.632L164.55 15.712C163.761 14.7093 162.982 14.016 162.214 13.632C161.446 13.248 160.614 13.056 159.718 13.056C158.801 13.056 158.012 13.2693 157.35 13.696C156.689 14.1013 156.358 14.7307 156.358 15.584C156.358 16.16 156.593 16.672 157.062 17.12C157.532 17.568 158.438 18.048 159.782 18.56ZM184.276 32L183.06 27.52H175.092L173.844 32H169.588L176.18 9.6H181.972L188.564 32H184.276ZM176.052 23.936H182.068L179.348 13.984H178.804L176.052 23.936Z" transform="translate(85 3)" fill="white"/>
<path d="M2.48954 0.405357C3.38053 0.405357 4.10992 0.553988 4.67771 0.85125C5.25423 1.14851 5.68662 1.64395 5.97489 2.33756C6.27188 3.03117 6.42038 3.96349 6.42038 5.13452C6.42038 6.30555 6.27188 7.23788 5.97489 7.93149C5.68662 8.6251 5.25423 9.12054 4.67771 9.4178C4.10992 9.71506 3.38053 9.86369 2.48954 9.86369H0V0.405357H2.48954ZM2.64677 8.94488C3.31065 8.94488 3.84349 8.83228 4.24531 8.60708C4.64713 8.38188 4.94413 7.99454 5.13631 7.44506C5.33722 6.88657 5.43767 6.11639 5.43767 5.13452C5.43767 4.15266 5.33722 3.38698 5.13631 2.8375C4.94413 2.27901 4.64713 1.88716 4.24531 1.66196C3.84349 1.42776 3.31065 1.31065 2.64677 1.31065H0.982711V8.94488H2.64677Z" transform="translate(87.1948 43)" fill="white"/>
<path d="M10.7181 9.95827C9.84459 9.95827 9.15014 9.68804 8.63476 9.14756C8.12812 8.60708 7.87479 7.80538 7.87479 6.74244V6.2425C7.87479 5.15254 8.11938 4.34182 8.60855 3.81036C9.10646 3.27889 9.78344 3.01315 10.6395 3.01315C11.4781 3.01315 12.1201 3.26988 12.5656 3.78333C13.0198 4.28778 13.247 5.05796 13.247 6.09387C13.247 6.37312 13.1902 6.57129 13.0766 6.68839C12.9631 6.79649 12.7665 6.85054 12.487 6.85054H8.8182C8.82693 7.64323 9.00164 8.21974 9.34231 8.58006C9.68298 8.94038 10.1853 9.12053 10.8491 9.12053C11.2335 9.12053 11.5698 9.06649 11.8581 8.95839C12.1463 8.84129 12.4215 8.67464 12.6835 8.45845L13.0635 9.02595C12.4608 9.6475 11.679 9.95827 10.7181 9.95827ZM12.3429 6.10738C12.3429 5.31468 12.2031 4.74268 11.9236 4.39137C11.644 4.03105 11.216 3.85089 10.6395 3.85089C9.43403 3.85089 8.82693 4.60306 8.8182 6.10738H12.3429Z" transform="translate(87.1948 43)" fill="white"/>
<path d="M21.811 3.01315C22.4399 3.01315 22.9247 3.22034 23.2654 3.6347C23.6061 4.04907 23.7764 4.63909 23.7764 5.40476V9.86369H22.8199V5.36423C22.8199 4.8868 22.7107 4.52198 22.4923 4.26976C22.2827 4.00853 21.9726 3.87792 21.562 3.87792C21.1165 3.87792 20.7496 4.00403 20.4614 4.25625C20.1731 4.49946 19.9591 4.79222 19.8193 5.13452V9.86369H18.8628V5.36423C18.8628 4.8868 18.758 4.52198 18.5484 4.26976C18.3387 4.00853 18.0286 3.87792 17.6181 3.87792C17.1726 3.87792 16.8013 4.00403 16.5043 4.25625C16.2161 4.50847 16.0021 4.80123 15.8623 5.13452V9.86369H14.9189V3.10774H15.8623V4.3103C16.0457 3.94998 16.3034 3.64371 16.6354 3.39149C16.976 3.13927 17.3953 3.01315 17.8932 3.01315C18.33 3.01315 18.6969 3.12575 18.9939 3.35095C19.2996 3.56714 19.5223 3.88692 19.6621 4.3103C19.8456 3.95899 20.1207 3.65722 20.4876 3.405C20.8632 3.14377 21.3043 3.01315 21.811 3.01315Z" transform="translate(87.1948 43)" fill="white"/>
<path d="M28.2854 9.95827C27.4119 9.95827 26.7262 9.68804 26.2283 9.14756C25.7391 8.59808 25.4945 7.78286 25.4945 6.7019V6.26952C25.4945 5.18857 25.7391 4.37786 26.2283 3.83738C26.7262 3.2879 27.4119 3.01315 28.2854 3.01315C29.1502 3.01315 29.8315 3.2879 30.3294 3.83738C30.8274 4.37786 31.0763 5.18857 31.0763 6.26952V6.7019C31.0763 7.78286 30.8274 8.59808 30.3294 9.14756C29.8315 9.68804 29.1502 9.95827 28.2854 9.95827ZM28.2854 9.12053C29.5083 9.12053 30.1198 8.31433 30.1198 6.7019V6.26952C30.1198 4.6571 29.5083 3.85089 28.2854 3.85089C27.0537 3.85089 26.4379 4.6571 26.4379 6.26952V6.7019C26.4379 8.31433 27.0537 9.12053 28.2854 9.12053Z" transform="translate(87.1948 43)" fill="white"/>
<path d="M35.4145 9.12053C35.7988 9.12053 36.1133 9.06198 36.3579 8.94488C36.6112 8.82778 36.882 8.64762 37.1702 8.4044L37.5764 8.99893C37.2969 9.27817 36.9781 9.50788 36.6199 9.68804C36.2618 9.86819 35.8207 9.95827 35.2965 9.95827C34.423 9.95827 33.746 9.68804 33.2656 9.14756C32.7852 8.60708 32.5449 7.79186 32.5449 6.7019V6.26952C32.5449 5.17956 32.7852 4.36435 33.2656 3.82387C33.746 3.28339 34.423 3.01315 35.2965 3.01315C36.1963 3.01315 36.9562 3.33294 37.5764 3.9725L37.1702 4.56702C36.882 4.32381 36.6112 4.14365 36.3579 4.02655C36.1133 3.90944 35.7988 3.85089 35.4145 3.85089C34.7681 3.85089 34.2833 4.04006 33.9601 4.41839C33.6456 4.79673 33.4884 5.41377 33.4884 6.26952V6.7019C33.4884 7.55766 33.6456 8.1747 33.9601 8.55303C34.2833 8.93137 34.7681 9.12053 35.4145 9.12053Z" transform="translate(87.1948 43)" fill="white"/>
<path d="M42.6369 3.99952C42.4622 3.95448 42.2831 3.93196 42.0997 3.93196C41.6542 3.93196 41.2524 4.07159 40.8942 4.35083C40.5448 4.62107 40.3133 4.95887 40.1998 5.36423V9.86369H39.2564V3.10774H40.1998V4.37786C40.6453 3.46806 41.3004 3.01315 42.1652 3.01315C42.3049 3.01315 42.4622 3.03117 42.6369 3.0672V3.99952Z" transform="translate(87.1948 43)" fill="white"/>
<path d="M48.5963 9.26917C48.5963 9.44933 48.6007 9.57544 48.6094 9.6475C48.6182 9.71956 48.6444 9.79163 48.688 9.86369H48.0329C47.7796 9.86369 47.6529 9.66552 47.6529 9.26917V8.64762C47.4083 9.04397 47.0851 9.36375 46.6833 9.60696C46.2902 9.84117 45.8447 9.95827 45.3468 9.95827C44.7616 9.95827 44.2855 9.78712 43.9186 9.44482C43.5517 9.10252 43.3683 8.61609 43.3683 7.98554C43.3683 7.32796 43.5736 6.84153 43.9841 6.52625C44.4034 6.20196 45.0105 5.99478 45.8054 5.9047L47.6529 5.68851V5.43179C47.6529 4.84627 47.535 4.43641 47.2991 4.2022C47.072 3.968 46.6964 3.85089 46.1723 3.85089C45.4473 3.85089 44.7965 4.06258 44.22 4.48595L43.9055 3.78333C44.6218 3.26988 45.4167 3.01315 46.2902 3.01315C47.0764 3.01315 47.6573 3.21133 48.0329 3.60768C48.4085 3.99502 48.5963 4.60756 48.5963 5.4453V9.26917ZM45.6089 9.12053C46.1155 9.12053 46.5523 8.98992 46.9192 8.72869C47.286 8.46746 47.5306 8.12516 47.6529 7.70179V6.44518L45.9757 6.64786C45.3992 6.71992 44.9756 6.85504 44.7048 7.05321C44.4427 7.24238 44.3117 7.54865 44.3117 7.97202C44.3117 8.35036 44.4209 8.63861 44.6393 8.83679C44.8664 9.02595 45.1896 9.12053 45.6089 9.12053Z" transform="translate(87.1948 43)" fill="white"/>
<path d="M51.8452 8.03958C51.8452 8.40891 51.9151 8.67915 52.0548 8.8503C52.1946 9.01244 52.4436 9.09351 52.8017 9.09351C52.9677 9.09351 53.1467 9.08 53.3389 9.05298V9.78262C53.0769 9.89972 52.758 9.95827 52.3824 9.95827C51.8408 9.95827 51.4565 9.80514 51.2294 9.49887C51.011 9.18359 50.9018 8.69716 50.9018 8.03958V3.93196H49.7487V3.10774H50.9018V1.48631L51.8452 1.32417V3.10774H53.4044L53.4175 3.93196H51.8452V8.03958Z" transform="translate(87.1948 43)" fill="white"/>
<path d="M54.9567 0.837738C54.9567 0.486428 55.127 0.310774 55.4677 0.310774H55.6512C55.9918 0.310774 56.1622 0.486428 56.1622 0.837738V1.04042C56.1622 1.39173 55.9918 1.56738 55.6512 1.56738H55.4677C55.127 1.56738 54.9567 1.39173 54.9567 1.04042V0.837738ZM55.0877 3.10774H56.0442V9.86369H55.0877V3.10774Z" transform="translate(87.1948 43)" fill="white"/>
<path d="M60.7244 9.12053C61.1088 9.12053 61.4232 9.06198 61.6678 8.94488C61.9211 8.82778 62.1919 8.64762 62.4802 8.4044L62.8864 8.99893C62.6068 9.27817 62.288 9.50788 61.9299 9.68804C61.5717 9.86819 61.1306 9.95827 60.6065 9.95827C59.733 9.95827 59.056 9.68804 58.5755 9.14756C58.0951 8.60708 57.8549 7.79186 57.8549 6.7019V6.26952C57.8549 5.17956 58.0951 4.36435 58.5755 3.82387C59.056 3.28339 59.733 3.01315 60.6065 3.01315C61.5062 3.01315 62.2662 3.33294 62.8864 3.9725L62.4802 4.56702C62.1919 4.32381 61.9211 4.14365 61.6678 4.02655C61.4232 3.90944 61.1088 3.85089 60.7244 3.85089C60.078 3.85089 59.5932 4.04006 59.27 4.41839C58.9555 4.79673 58.7983 5.41377 58.7983 6.26952V6.7019C58.7983 7.55766 58.9555 8.1747 59.27 8.55303C59.5932 8.93137 60.078 9.12053 60.7244 9.12053Z" transform="translate(87.1948 43)" fill="white"/>
<path d="M70.8501 4.44542C71.5751 4.75169 72.1255 5.00841 72.5011 5.21559C72.8854 5.42278 73.2086 5.69752 73.4707 6.03982C73.7327 6.37311 73.8638 6.79649 73.8638 7.30994C73.8638 7.85042 73.7196 8.32333 73.4314 8.72869C73.1519 9.12504 72.7762 9.43131 72.3045 9.6475C71.8328 9.86369 71.3262 9.97178 70.7846 9.97178C70.0509 9.97178 69.3913 9.78712 68.8061 9.4178C68.2208 9.04847 67.8146 8.56204 67.5875 7.95851L68.3213 7.49911C68.5659 7.99454 68.9065 8.37738 69.3433 8.64762C69.7801 8.91786 70.2605 9.05298 70.7846 9.05298C71.134 9.05298 71.4703 8.98992 71.7935 8.86381C72.1167 8.7377 72.3788 8.54853 72.5797 8.29631C72.7893 8.03508 72.8942 7.7198 72.8942 7.35048C72.8942 7.00817 72.7981 6.71992 72.6059 6.48571C72.4225 6.25151 72.1822 6.05784 71.8853 5.9047C71.5883 5.75157 71.1777 5.57141 70.6536 5.36423C69.7713 5.02192 69.1074 4.6481 68.662 4.24274C68.2252 3.83738 68.0068 3.32393 68.0068 2.70238C68.0068 2.22496 68.1335 1.80609 68.3868 1.44577C68.6489 1.07645 68.9939 0.792699 69.4219 0.594524C69.8499 0.39635 70.3173 0.297262 70.8239 0.297262C71.5053 0.297262 72.108 0.468413 72.6321 0.810714C73.165 1.14401 73.5537 1.56738 73.7983 2.08083L73.13 2.6078C72.8243 2.13038 72.4836 1.77907 72.108 1.55387C71.7411 1.32867 71.3175 1.21607 70.837 1.21607C70.3042 1.21607 69.863 1.34669 69.5136 1.60792C69.1642 1.86915 68.9895 2.23397 68.9895 2.70238C68.9895 3.09873 69.1337 3.42302 69.4219 3.67524C69.7102 3.91845 70.1863 4.17518 70.8501 4.44542Z" transform="translate(87.1948 43)" fill="white"/>
<path d="M77.92 9.95827C77.0465 9.95827 76.3608 9.68804 75.8629 9.14756C75.3737 8.59808 75.1291 7.78286 75.1291 6.7019V6.26952C75.1291 5.18857 75.3737 4.37786 75.8629 3.83738C76.3608 3.2879 77.0465 3.01315 77.92 3.01315C78.7848 3.01315 79.4662 3.2879 79.9641 3.83738C80.462 4.37786 80.7109 5.18857 80.7109 6.26952V6.7019C80.7109 7.78286 80.462 8.59808 79.9641 9.14756C79.4662 9.68804 78.7848 9.95827 77.92 9.95827ZM77.92 9.12053C79.1429 9.12053 79.7544 8.31433 79.7544 6.7019V6.26952C79.7544 4.6571 79.1429 3.85089 77.92 3.85089C76.6884 3.85089 76.0725 4.6571 76.0725 6.26952V6.7019C76.0725 8.31433 76.6884 9.12053 77.92 9.12053Z" transform="translate(87.1948 43)" fill="white"/>
<path d="M85.0491 9.12053C85.4334 9.12053 85.7479 9.06198 85.9925 8.94488C86.2458 8.82778 86.5166 8.64762 86.8049 8.4044L87.211 8.99893C86.9315 9.27817 86.6127 9.50788 86.2545 9.68804C85.8964 9.86819 85.4553 9.95827 84.9312 9.95827C84.0576 9.95827 83.3807 9.68804 82.9002 9.14756C82.4198 8.60708 82.1796 7.79186 82.1796 6.7019V6.26952C82.1796 5.17956 82.4198 4.36435 82.9002 3.82387C83.3807 3.28339 84.0576 3.01315 84.9312 3.01315C85.8309 3.01315 86.5908 3.33294 87.211 3.9725L86.8049 4.56702C86.5166 4.32381 86.2458 4.14365 85.9925 4.02655C85.7479 3.90944 85.4334 3.85089 85.0491 3.85089C84.4027 3.85089 83.9179 4.04006 83.5947 4.41839C83.2802 4.79673 83.123 5.41377 83.123 6.26952V6.7019C83.123 7.55766 83.2802 8.1747 83.5947 8.55303C83.9179 8.93137 84.4027 9.12053 85.0491 9.12053Z" transform="translate(87.1948 43)" fill="white"/>
<path d="M88.891 0.837738C88.891 0.486428 89.0613 0.310774 89.402 0.310774H89.5854C89.9261 0.310774 90.0964 0.486428 90.0964 0.837738V1.04042C90.0964 1.39173 89.9261 1.56738 89.5854 1.56738H89.402C89.0613 1.56738 88.891 1.39173 88.891 1.04042V0.837738ZM89.022 3.10774H89.9785V9.86369H89.022V3.10774Z" transform="translate(87.1948 43)" fill="white"/>
<path d="M96.9386 9.26917C96.9386 9.44933 96.9429 9.57544 96.9517 9.6475C96.9604 9.71956 96.9866 9.79163 97.0303 9.86369H96.3751C96.1218 9.86369 95.9952 9.66552 95.9952 9.26917V8.64762C95.7506 9.04397 95.4274 9.36375 95.0255 9.60696C94.6325 9.84117 94.187 9.95827 93.6891 9.95827C93.1038 9.95827 92.6277 9.78712 92.2608 9.44482C91.894 9.10252 91.7105 8.61609 91.7105 7.98554C91.7105 7.32796 91.9158 6.84153 92.3264 6.52625C92.7457 6.20196 93.3528 5.99478 94.1477 5.9047L95.9952 5.68851V5.43179C95.9952 4.84627 95.8772 4.43641 95.6414 4.2022C95.4143 3.968 95.0386 3.85089 94.5145 3.85089C93.7895 3.85089 93.1387 4.06258 92.5622 4.48595L92.2477 3.78333C92.964 3.26988 93.7589 3.01315 94.6325 3.01315C95.4186 3.01315 95.9995 3.21133 96.3751 3.60768C96.7507 3.99502 96.9386 4.60756 96.9386 5.4453V9.26917ZM93.9511 9.12053C94.4578 9.12053 94.8945 8.98992 95.2614 8.72869C95.6283 8.46746 95.8729 8.12516 95.9952 7.70179V6.44518L94.318 6.64786C93.7415 6.71992 93.3178 6.85504 93.047 7.05321C92.785 7.24238 92.6539 7.54865 92.6539 7.97202C92.6539 8.35036 92.7631 8.63861 92.9815 8.83679C93.2086 9.02595 93.5318 9.12053 93.9511 9.12053Z" transform="translate(87.1948 43)" fill="white"/>
<path d="M98.9365 9.86369V0.0675596H99.8799V9.86369H98.9365Z" transform="translate(87.1948 43)" fill="white"/>
<path d="M101.879 0.837738C101.879 0.486428 102.049 0.310774 102.39 0.310774H102.573C102.914 0.310774 103.084 0.486428 103.084 0.837738V1.04042C103.084 1.39173 102.914 1.56738 102.573 1.56738H102.39C102.049 1.56738 101.879 1.39173 101.879 1.04042V0.837738ZM102.01 3.10774H102.966V9.86369H102.01V3.10774Z" transform="translate(87.1948 43)" fill="white"/>
<path d="M107.227 5.91821C107.786 6.11639 108.232 6.30105 108.564 6.4722C108.904 6.64335 109.171 6.85504 109.363 7.10726C109.564 7.35948 109.664 7.67476 109.664 8.0531C109.664 8.45845 109.551 8.80526 109.323 9.09351C109.096 9.38177 108.795 9.60246 108.419 9.75559C108.044 9.89972 107.642 9.97178 107.214 9.97178C106.55 9.97178 105.991 9.80964 105.537 9.48536C105.083 9.15206 104.812 8.69266 104.724 8.10714L105.55 7.98554C105.646 8.33684 105.843 8.61609 106.14 8.82327C106.445 9.03046 106.812 9.13405 107.24 9.13405C107.651 9.13405 107.996 9.03946 108.275 8.8503C108.564 8.66113 108.708 8.39089 108.708 8.03958C108.708 7.74232 108.59 7.50361 108.354 7.32345C108.118 7.14329 107.729 6.96313 107.188 6.78298C106.454 6.54877 105.904 6.27403 105.537 5.95875C105.17 5.63446 104.986 5.23361 104.986 4.75619C104.986 4.24274 105.187 3.82387 105.589 3.49958C105.991 3.16629 106.506 2.99964 107.135 2.99964C107.773 2.99964 108.301 3.17079 108.721 3.5131C109.14 3.84639 109.38 4.26526 109.441 4.7697L108.681 4.94536C108.577 4.61206 108.393 4.34183 108.131 4.13464C107.869 3.92746 107.537 3.82387 107.135 3.82387C106.768 3.82387 106.471 3.90944 106.244 4.08059C106.026 4.24274 105.917 4.47694 105.917 4.78321C105.917 5.04444 106.017 5.26063 106.218 5.43179C106.419 5.59393 106.755 5.75607 107.227 5.91821Z" transform="translate(87.1948 43)" fill="white"/>
<path d="M112.714 8.03958C112.714 8.40891 112.784 8.67915 112.924 8.8503C113.064 9.01244 113.313 9.09351 113.671 9.09351C113.837 9.09351 114.016 9.08 114.208 9.05298V9.78262C113.946 9.89972 113.627 9.95827 113.252 9.95827C112.71 9.95827 112.326 9.80514 112.099 9.49887C111.88 9.18359 111.771 8.69716 111.771 8.03958V3.93196H110.618V3.10774H111.771V1.48631L112.714 1.32417V3.10774H114.274L114.287 3.93196H112.714V8.03958Z" transform="translate(87.1948 43)" fill="white"/>
<path d="M118.001 5.91821C118.56 6.11639 119.006 6.30105 119.338 6.4722C119.678 6.64335 119.945 6.85504 120.137 7.10726C120.338 7.35948 120.438 7.67476 120.438 8.0531C120.438 8.45845 120.325 8.80526 120.097 9.09351C119.87 9.38177 119.569 9.60246 119.193 9.75559C118.818 9.89972 118.416 9.97178 117.988 9.97178C117.324 9.97178 116.765 9.80964 116.311 9.48536C115.857 9.15206 115.586 8.69266 115.498 8.10714L116.324 7.98554C116.42 8.33684 116.617 8.61609 116.914 8.82327C117.219 9.03046 117.586 9.13405 118.014 9.13405C118.425 9.13405 118.77 9.03946 119.049 8.8503C119.338 8.66113 119.482 8.39089 119.482 8.03958C119.482 7.74232 119.364 7.50361 119.128 7.32345C118.892 7.14329 118.503 6.96313 117.962 6.78298C117.228 6.54877 116.678 6.27403 116.311 5.95875C115.944 5.63446 115.76 5.23361 115.76 4.75619C115.76 4.24274 115.961 3.82387 116.363 3.49958C116.765 3.16629 117.28 2.99964 117.909 2.99964C118.547 2.99964 119.075 3.17079 119.495 3.5131C119.914 3.84639 120.154 4.26526 120.215 4.7697L119.455 4.94536C119.351 4.61206 119.167 4.34183 118.905 4.13464C118.643 3.92746 118.311 3.82387 117.909 3.82387C117.542 3.82387 117.245 3.90944 117.018 4.08059C116.8 4.24274 116.691 4.47694 116.691 4.78321C116.691 5.04444 116.791 5.26063 116.992 5.43179C117.193 5.59393 117.529 5.75607 118.001 5.91821Z" transform="translate(87.1948 43)" fill="white"/>
<path d="M128.092 9.95827C127.219 9.95827 126.533 9.68804 126.035 9.14756C125.546 8.59808 125.301 7.78286 125.301 6.7019V6.26952C125.301 5.18857 125.546 4.37786 126.035 3.83738C126.533 3.2879 127.219 3.01315 128.092 3.01315C128.957 3.01315 129.638 3.2879 130.136 3.83738C130.634 4.37786 130.883 5.18857 130.883 6.26952V6.7019C130.883 7.78286 130.634 8.59808 130.136 9.14756C129.638 9.68804 128.957 9.95827 128.092 9.95827ZM128.092 9.12053C129.315 9.12053 129.926 8.31433 129.926 6.7019V6.26952C129.926 4.6571 129.315 3.85089 128.092 3.85089C126.86 3.85089 126.245 4.6571 126.245 6.26952V6.7019C126.245 8.31433 126.86 9.12053 128.092 9.12053Z" transform="translate(87.1948 43)" fill="white"/>
<path d="M134.07 3.10774H135.956V3.93196H134.07V9.86369H133.113V3.93196H132.078V3.10774H133.113V2.25649C133.113 1.44577 133.266 0.869266 133.572 0.526965C133.886 0.175655 134.415 0 135.157 0H135.983L136.074 0.864762H135.157C134.738 0.864762 134.45 0.972857 134.292 1.18905C134.144 1.39623 134.07 1.75204 134.07 2.25649V3.10774Z" transform="translate(87.1948 43)" fill="white"/>
<path d="M146.812 9.86369L146.13 7.56667H142.304L141.623 9.86369H140.601L143.47 0.405357H144.951L147.834 9.86369H146.812ZM142.566 6.67488H145.855L144.296 1.43226H144.125L142.566 6.67488Z" transform="translate(87.1948 43)" fill="white"/>
<path d="M156.243 3.01315C156.872 3.01315 157.357 3.22034 157.697 3.6347C158.038 4.04907 158.208 4.63909 158.208 5.40476V9.86369H157.252V5.36423C157.252 4.8868 157.143 4.52198 156.924 4.26976C156.715 4.00853 156.404 3.87792 155.994 3.87792C155.548 3.87792 155.182 4.00403 154.893 4.25625C154.605 4.49946 154.391 4.79222 154.251 5.13452V9.86369H153.295V5.36423C153.295 4.8868 153.19 4.52198 152.98 4.26976C152.771 4.00853 152.46 3.87792 152.05 3.87792C151.604 3.87792 151.233 4.00403 150.936 4.25625C150.648 4.50847 150.434 4.80123 150.294 5.13452V9.86369H149.351V3.10774H150.294V4.3103C150.478 3.94998 150.735 3.64371 151.067 3.39149C151.408 3.13927 151.827 3.01315 152.325 3.01315C152.762 3.01315 153.129 3.12575 153.426 3.35095C153.731 3.56714 153.954 3.88692 154.094 4.3103C154.277 3.95899 154.553 3.65722 154.919 3.405C155.295 3.14377 155.736 3.01315 156.243 3.01315Z" transform="translate(87.1948 43)" fill="white"/>
<path d="M162.77 9.95827C161.896 9.95827 161.202 9.68804 160.686 9.14756C160.18 8.60708 159.926 7.80538 159.926 6.74244V6.2425C159.926 5.15254 160.171 4.34182 160.66 3.81036C161.158 3.27889 161.835 3.01315 162.691 3.01315C163.53 3.01315 164.172 3.26988 164.617 3.78333C165.071 4.28778 165.299 5.05796 165.299 6.09387C165.299 6.37312 165.242 6.57129 165.128 6.68839C165.015 6.79649 164.818 6.85054 164.539 6.85054H160.87C160.879 7.64323 161.053 8.21974 161.394 8.58006C161.735 8.94038 162.237 9.12053 162.901 9.12053C163.285 9.12053 163.621 9.06649 163.91 8.95839C164.198 8.84129 164.473 8.67464 164.735 8.45845L165.115 9.02595C164.512 9.6475 163.731 9.95827 162.77 9.95827ZM164.394 6.10738C164.394 5.31468 164.255 4.74268 163.975 4.39137C163.696 4.03105 163.268 3.85089 162.691 3.85089C161.486 3.85089 160.879 4.60306 160.87 6.10738H164.394Z" transform="translate(87.1948 43)" fill="white"/>
<path d="M170.351 3.99952C170.176 3.95448 169.997 3.93196 169.814 3.93196C169.368 3.93196 168.966 4.07159 168.608 4.35083C168.259 4.62107 168.027 4.95887 167.914 5.36423V9.86369H166.97V3.10774H167.914V4.37786C168.359 3.46806 169.014 3.01315 169.879 3.01315C170.019 3.01315 170.176 3.03117 170.351 3.0672V3.99952Z" transform="translate(87.1948 43)" fill="white"/>
<path d="M171.897 0.837738C171.897 0.486428 172.067 0.310774 172.408 0.310774H172.591C172.932 0.310774 173.102 0.486428 173.102 0.837738V1.04042C173.102 1.39173 172.932 1.56738 172.591 1.56738H172.408C172.067 1.56738 171.897 1.39173 171.897 1.04042V0.837738ZM172.028 3.10774H172.984V9.86369H172.028V3.10774Z" transform="translate(87.1948 43)" fill="white"/>
<path d="M177.665 9.12053C178.049 9.12053 178.363 9.06198 178.608 8.94488C178.861 8.82778 179.132 8.64762 179.42 8.4044L179.826 8.99893C179.547 9.27817 179.228 9.50788 178.87 9.68804C178.512 9.86819 178.071 9.95827 177.547 9.95827C176.673 9.95827 175.996 9.68804 175.516 9.14756C175.035 8.60708 174.795 7.79186 174.795 6.7019V6.26952C174.795 5.17956 175.035 4.36435 175.516 3.82387C175.996 3.28339 176.673 3.01315 177.547 3.01315C178.446 3.01315 179.206 3.33294 179.826 3.9725L179.42 4.56702C179.132 4.32381 178.861 4.14365 178.608 4.02655C178.363 3.90944 178.049 3.85089 177.665 3.85089C177.018 3.85089 176.533 4.04006 176.21 4.41839C175.896 4.79673 175.738 5.41377 175.738 6.26952V6.7019C175.738 7.55766 175.896 8.1747 176.21 8.55303C176.533 8.93137 177.018 9.12053 177.665 9.12053Z" transform="translate(87.1948 43)" fill="white"/>
<path d="M186.381 9.26917C186.381 9.44933 186.385 9.57544 186.394 9.6475C186.402 9.71956 186.429 9.79163 186.472 9.86369H185.817C185.564 9.86369 185.437 9.66552 185.437 9.26917V8.64762C185.193 9.04397 184.869 9.36375 184.468 9.60696C184.075 9.84117 183.629 9.95827 183.131 9.95827C182.546 9.95827 182.07 9.78712 181.703 9.44482C181.336 9.10252 181.153 8.61609 181.153 7.98554C181.153 7.32796 181.358 6.84153 181.768 6.52625C182.188 6.20196 182.795 5.99478 183.59 5.9047L185.437 5.68851V5.43179C185.437 4.84627 185.319 4.43641 185.083 4.2022C184.856 3.968 184.481 3.85089 183.957 3.85089C183.232 3.85089 182.581 4.06258 182.004 4.48595L181.69 3.78333C182.406 3.26988 183.201 3.01315 184.075 3.01315C184.861 3.01315 185.442 3.21133 185.817 3.60768C186.193 3.99502 186.381 4.60756 186.381 5.4453V9.26917ZM183.393 9.12053C183.9 9.12053 184.337 8.98992 184.703 8.72869C185.07 8.46746 185.315 8.12516 185.437 7.70179V6.44518L183.76 6.64786C183.184 6.71992 182.76 6.85504 182.489 7.05321C182.227 7.24238 182.096 7.54865 182.096 7.97202C182.096 8.35036 182.205 8.63861 182.424 8.83679C182.651 9.02595 182.974 9.12053 183.393 9.12053Z" transform="translate(87.1948 43)" fill="white"/>
</svg>
